<svg width="33" height="33" viewBox="0 0 33 33" fill="none" xmlns="http://www.w3.org/2000/svg">
<path fill-rule="evenodd" clip-rule="evenodd" d="M30.0155 26.404C28.1559 25.3421 26.3624 24.8196 24.9552 24.5039C24.958 24.5025 24.9609 24.5025 24.9638 24.501C24.8231 24.4699 24.6967 24.4444 24.5631 24.4175C24.4755 24.3991 24.388 24.3793 24.3032 24.3637C23.4977 24.1995 22.8644 24.0961 22.5183 23.9842C21.6094 23.6855 20.6315 23.3697 20.6315 22.0954C20.6315 20.8225 20.6143 20.6555 20.9244 20.4855C21.5146 20.1571 21.8635 19.6502 21.9411 19.2565C22.0847 18.5217 22.1594 16.463 22.346 16.201C22.5327 15.9334 22.8673 16.1614 22.9822 15.5582C23.0927 14.955 23.0927 14.4255 23.2033 14.2004C23.3153 13.9738 23.7059 12.5126 23.4646 12.0114C23.2492 11.564 22.8587 11.7976 22.8314 11.5201C22.784 11.0684 23.6183 7.27662 23.054 5.67099C22.7366 4.76057 22.066 3.91669 22.0603 3.89687C21.6496 2.42292 18.8164 1.63285 18.1071 1.32984C17.3977 1.02826 15.3113 0.613398 13.894 1.32984C12.4767 2.0477 12.0962 3.01335 11.4974 3.38998C10.9015 3.76944 10.2653 4.00023 9.67946 5.67099C9.11513 7.27662 9.94942 11.0684 9.90347 11.5201C9.87619 11.7976 9.48417 11.564 9.27165 12.0114C9.02754 12.5126 9.41956 13.9738 9.53012 14.2004C9.64213 14.4255 9.64213 14.955 9.75557 15.5582C9.86614 16.1614 10.2007 15.9334 10.3888 16.201C10.5755 16.463 10.6502 18.5217 10.7938 19.2565C10.8699 19.6502 11.2202 20.1571 11.8104 20.4855C12.1192 20.6555 12.1034 20.8225 12.1034 22.0954C12.1034 23.3697 11.1269 23.6855 10.2151 23.9842C9.23862 24.3042 6.0508 24.4869 2.69641 26.404C-0.186987 28.0507 0.00255921 32.7911 0.00255921 32.7911H12.7409H15.6631H32.7093C32.7093 32.7911 32.9003 28.0507 30.0155 26.404Z" fill="#A3A3A3"/>
</svg>
