<svg width="17" height="16" viewBox="0 0 17 16" fill="none" xmlns="http://www.w3.org/2000/svg">
<path d="M12.8419 16H14.0497C14.6609 16 15.1629 15.5343 15.2357 14.9377L16.4362 2.94679H12.7982V0H11.3648V2.94679H7.74865L7.96693 4.64939C9.21113 4.99136 10.3753 5.60982 11.0738 6.29377C12.1215 7.32697 12.8419 8.39654 12.8419 10.1428V16V16ZM0.428955 15.2724V14.5521H11.3648V15.2724C11.3648 15.6726 11.0374 16 10.63 16H1.16383C0.756377 16 0.428955 15.6726 0.428955 15.2724V15.2724ZM11.3648 10.1792C11.3648 4.35834 0.428955 4.35834 0.428955 10.1792H11.3648ZM0.443507 11.6417H11.3576V13.0969H0.443507V11.6417Z" fill="#1B9A5A"/>
</svg>
