<svg width="64" height="48" viewBox="0 0 64 48" fill="none" xmlns="http://www.w3.org/2000/svg">
<path d="M62 40H2C1.45833 40 0.989583 39.8021 0.59375 39.4062C0.197917 39.0104 0 38.5417 0 38C0 30.1667 2.42708 23.4896 7.28125 17.9688C12.1354 12.4479 18.375 9.125 26 8C26.5417 8 27.0104 7.80208 27.4062 7.40625C27.8021 7.01042 28 6.54167 28 6C28 5.45833 27.8021 4.98958 27.4062 4.59375C27.0104 4.19792 26.5417 4 26 4C25.4583 4 24.9896 3.80208 24.5938 3.40625C24.1979 3.01042 24 2.54167 24 2C24 1.45833 24.1979 0.989583 24.5938 0.59375C24.9896 0.197917 25.4583 0 26 0H38C38.5417 0 39.0104 0.197917 39.4062 0.59375C39.8021 0.989583 40 1.45833 40 2C40 2.54167 39.8021 3.01042 39.4062 3.40625C39.0104 3.80208 38.5417 4 38 4C37.4583 4 36.9896 4.19792 36.5938 4.59375C36.1979 4.98958 36 5.45833 36 6C36 6.54167 36.1979 7.01042 36.5938 7.40625C36.9896 7.80208 37.4583 8 38 8C45.625 9.125 51.8646 12.4479 56.7188 17.9688C61.5729 23.4896 64 30.1667 64 38C64 38.5417 63.8021 39.0104 63.4062 39.4062C63.0104 39.8021 62.5417 40 62 40ZM2 44H62C62.5417 44 63.0104 44.1979 63.4062 44.5938C63.8021 44.9896 64 45.4583 64 46C64 46.5417 63.8021 47.0104 63.4062 47.4062C63.0104 47.8021 62.5417 48 62 48H2C1.45833 48 0.989583 47.8021 0.59375 47.4062C0.197917 47.0104 0 46.5417 0 46C0 45.4583 0.197917 44.9896 0.59375 44.5938C0.989583 44.1979 1.45833 44 2 44Z" fill="#1B9A5A"/>
</svg>
