<svg width="23" height="33" viewBox="0 0 23 33" fill="none" xmlns="http://www.w3.org/2000/svg">
<path d="M11.3557 31.0759C11.3172 31.1284 11.2796 31.1797 11.2429 31.2297C9.83517 29.4404 7.32729 25.9702 5.08411 22.2644C3.84514 20.2175 2.69324 18.109 1.85263 16.1792C1.00578 14.235 0.5 12.5275 0.5 11.264C0.5 7.3591 1.95694 4.68743 4.00124 2.98334C5.98711 1.32794 8.56462 0.555664 10.9935 0.502909H11.2611C13.7671 0.502909 16.4621 1.26924 18.5211 2.98452C20.5653 4.68754 22.0222 7.35772 22.0222 11.2611C22.0222 12.5975 21.4986 14.3418 20.6305 16.2975C19.7681 18.2403 18.5899 20.3394 17.3328 22.3687C15.1277 25.9283 12.7015 29.2392 11.3557 31.0759Z" fill="#1B9A5A" stroke="white"/>
</svg>
