<svg width="13" height="16" viewBox="0 0 13 16" fill="none" xmlns="http://www.w3.org/2000/svg">
<path d="M12.7919 0H0V1.59898L4.64504 5.08476C3.23533 5.54961 2.06787 6.55517 1.39924 7.88042C0.730614 9.20568 0.615541 10.7422 1.07931 12.1523C1.30876 12.8508 1.67367 13.4972 2.15317 14.0546C2.63268 14.6119 3.21736 15.0693 3.87378 15.4004C4.5302 15.7316 5.24547 15.9301 5.97868 15.9846C6.71189 16.0391 7.44865 15.9485 8.14681 15.718C9.26648 15.35 10.2414 14.6379 10.9325 13.6832C11.6237 12.7285 11.9958 11.58 11.9958 10.4014C11.9958 9.22278 11.6237 8.07426 10.9325 7.11958C10.2414 6.1649 9.26648 5.45278 8.14681 5.08476L12.7919 1.59898V0ZM8.74643 13.9911L6.39593 12.616L4.04543 13.9911L4.66903 11.3288L2.59835 9.53793L5.32461 9.30608L6.39593 6.79567L7.46725 9.30608L10.1935 9.53793L8.12283 11.3288L8.74643 13.9911V13.9911Z" fill="#1B9A5A"/>
</svg>
