<svg width="256" height="213" viewBox="0 0 256 213" fill="none" xmlns="http://www.w3.org/2000/svg">
<g clip-path="url(#clip0)">
<path d="M238.813 133.557L213.077 145.737L235.854 128.705C232.152 122.927 227.994 117.455 223.418 112.341L111.807 140.082L212.623 101.624C208.016 97.5594 203.124 93.8302 197.983 90.4653L27.9144 117.859C9.85733 140.439 0.0139013 168.488 0 197.4H256C255.99 174.977 250.061 152.954 238.813 133.557Z" fill="#F2F2F2"/>
<path d="M184.065 82.5573C166.604 74.041 147.427 69.628 128 69.6555C88.4611 69.6555 53.1111 87.5842 29.6316 115.754C69.8381 106.944 139.841 91.6942 184.065 82.5573Z" fill="#F2F2F2"/>
<path d="M203.085 194.541C199.552 193.942 196.154 193.428 192.891 192.999L194.181 190.498C193.746 190.347 191.835 191.779 191.835 191.779L193.528 184.52C191.341 184.784 190.229 192.196 190.229 192.196L187.785 189.69L188.968 192.507C180.385 191.469 171.75 190.926 163.105 190.879L164.209 188.739C163.774 188.588 161.864 190.02 161.864 190.02L163.556 182.761C161.369 183.025 160.257 190.437 160.257 190.437L157.813 187.931L159.066 190.915C154.096 190.997 149.134 191.334 144.199 191.925C145.315 188.59 149.108 185.419 149.108 185.419C146.212 186.281 144.692 187.724 143.898 189.07C143.827 182.191 144.971 175.353 147.277 168.871C147.277 168.871 141.29 181.9 142.054 190.645L142.145 192.198C137.069 192.925 134.517 193.681 134.517 193.681L203.085 194.541Z" fill="#3F3D56"/>
<path d="M123.879 194.074C120.346 193.476 116.948 192.962 113.685 192.532L114.975 190.032C114.54 189.881 112.629 191.313 112.629 191.313L114.322 184.054C112.135 184.318 111.022 191.729 111.022 191.729L108.579 189.223L109.762 192.041C101.179 191.003 92.5442 190.46 83.8992 190.413L85.0031 188.273C84.5682 188.122 82.6575 189.554 82.6575 189.554L84.3501 182.295C82.1627 182.559 81.0506 189.97 81.0506 189.97L78.6068 187.465L79.8599 190.448C74.8901 190.531 69.9278 190.868 64.9926 191.458C66.1092 188.124 69.9022 184.953 69.9022 184.953C67.0055 185.814 65.486 187.258 64.692 188.604C64.6211 181.724 65.765 174.886 68.0712 168.404C68.0712 168.404 62.0838 181.433 62.8478 190.179L62.9392 191.732C57.8632 192.459 55.3113 193.215 55.3113 193.215L123.879 194.074Z" fill="#3F3D56"/>
<path d="M209.48 196.886C209.48 200.861 172.54 212.822 126.973 212.822C81.4053 212.822 44.4656 200.861 44.4656 196.886C44.4656 192.911 81.4053 198.428 126.973 198.428C172.54 198.428 209.48 192.911 209.48 196.886Z" fill="#3F3D56"/>
<path opacity="0.1" d="M209.48 196.886C209.48 200.861 172.54 212.822 126.973 212.822C81.4053 212.822 44.4656 200.861 44.4656 196.886C44.4656 192.911 81.4053 198.428 126.973 198.428C172.54 198.428 209.48 192.911 209.48 196.886Z" fill="black"/>
<path d="M126.973 204.083C172.54 204.083 209.48 200.861 209.48 196.886C209.48 192.911 172.54 189.689 126.973 189.689C81.4053 189.689 44.4656 192.911 44.4656 196.886C44.4656 200.861 81.4053 204.083 126.973 204.083Z" fill="#3F3D56"/>
<path opacity="0.1" d="M131.728 199.199C170.269 199.199 201.512 197.358 201.512 195.087C201.512 192.816 170.269 190.974 131.728 190.974C93.1872 190.974 61.9438 192.816 61.9438 195.087C61.9438 197.358 93.1872 199.199 131.728 199.199Z" fill="black"/>
<path d="M106.658 168.719C106.773 185.094 97.0787 190.879 85.0717 190.963C84.7928 190.965 84.5153 190.964 84.239 190.96C83.6824 190.952 83.1316 190.93 82.5865 190.896C71.7444 190.205 63.282 184.254 63.1748 169.026C63.0638 153.266 83.0653 133.237 84.5655 131.755C84.5668 131.755 84.5668 131.755 84.5681 131.754C84.6251 131.698 84.6543 131.669 84.6543 131.669C84.6543 131.669 106.542 152.346 106.658 168.719Z" fill="#38D39F"/>
<path d="M84.2629 188.464L92.1364 177.298L84.2515 189.684L84.2392 190.96C83.6826 190.952 83.1317 190.93 82.5866 190.896L83.328 174.508L83.3204 174.382L83.3349 174.358L83.4054 172.809L75.3267 160.505L83.4213 171.649L83.4436 171.977L84.0036 159.596L77.0722 146.872L84.0724 157.421L84.5656 131.755L84.5676 131.67L84.5682 131.754L84.5986 151.991L91.3516 143.921L84.5816 153.734L84.4794 164.817L90.7656 154.137L84.4656 166.447L84.4089 172.61L93.536 157.741L84.388 174.76L84.2629 188.464Z" fill="#3F3D56"/>
<path d="M161.132 192.635H181.457L174.706 181.723L169.949 181.327L172.736 178.54L155.752 151.089V146.606H153.468L139.612 113.429L142.003 110.141L139.612 108.348H138.285L130.528 37.9591H131.691L133.485 32.878V23.0146H131.094V18.2323H128.105V8.96673H127.507V0H126.909V8.96673H126.013V18.2323H123.323V23.0146H120.632V32.878L122.725 37.9591H123.934L118.117 108.348H118.092L114.206 109.544L116.299 113.13L116.448 113.429H116.299L104.667 146.606H101.653L101.952 151.089L76.845 192.635H97.4684V187.853H96.2729C96.2729 187.853 100.158 161.551 128.254 159.159C156.948 158.562 162.328 187.255 162.328 187.255H161.132V192.635ZM175.13 182.921L175.927 185.711L172.341 183.32L175.13 182.921ZM170.747 183.718L175.13 186.508L170.348 186.109L170.747 183.718ZM165.566 186.508L168.355 183.32L169.551 186.508H165.566ZM160.897 168.873L161.922 171.264L157.481 168.873H160.897ZM159.574 167.336L159.915 165.287L163.673 167.678L159.574 167.336ZM165.964 178.139L167.16 180.929L161.979 178.139H165.964ZM160.556 176.047L162.947 173.314L163.972 176.047H160.556ZM164.655 175.705L164.996 173.656L168.754 176.047L164.655 175.705ZM168.754 181.327L167.16 178.139H171.544L168.754 181.327ZM169.437 175.364L166.363 173.314L168.754 172.972L169.437 175.364ZM168.412 171.948L164.313 171.606L166.704 169.215L168.412 171.948ZM163.288 171.606L161.922 168.873H165.68L163.288 171.606ZM164.356 166.995L161.282 164.945L163.673 164.603L164.356 166.995ZM163.331 163.579L159.232 163.237L161.623 160.846L163.331 163.579ZM158.207 163.237L156.841 160.504H160.598L158.207 163.237ZM153.596 158.668L153.937 156.619L157.695 159.01L153.596 158.668ZM156.841 162.896L152.4 160.504H155.816L156.841 162.896ZM158.378 158.327L155.304 156.277L157.695 155.936L158.378 158.327ZM157.353 154.911L153.254 154.569L155.645 152.178L157.353 154.911ZM154.621 151.837L152.229 154.569L150.863 151.837H154.621ZM150.863 154.228L146.423 151.837H149.838L150.863 154.228ZM117.296 146.606L123.472 119.108H133.036L141.211 146.606H117.296ZM138.31 154.527L133.869 152.135H137.285L138.31 154.527ZM130.453 153.929L129.258 155.295L128.574 153.929H130.453ZM128.574 155.124L126.354 153.929H128.062L128.574 155.124ZM113.758 138.088L118.241 135.398L117.046 140.479L113.758 138.088ZM116.149 141.076H108.976L112.861 138.685L116.149 141.076ZM127.151 45.7073L125.886 46.9719L124.622 45.7073H127.151ZM124.622 45.1555L125.886 43.891L127.151 45.1555H124.622ZM127.151 48.7422H124.622L125.886 47.4777L127.151 48.7422ZM126.139 47.2248L127.404 45.9602V48.4893L126.139 47.2248ZM127.358 49.9148V52.9037L125.863 51.4092L127.358 49.9148ZM126.139 43.6381L127.404 42.3735V44.9026L126.139 43.6381ZM126.461 40.3503L127.457 39.354V41.3466L126.461 40.3503ZM127.258 41.5458H125.265L126.262 40.5495L127.258 41.5458ZM126.262 40.151L125.265 39.1547H127.258L126.262 40.151ZM126.062 40.3503L125.066 41.3466V39.354L126.062 40.3503ZM127.151 42.1206L125.886 43.3852L124.622 42.1206H127.151ZM125.633 43.6381L124.369 44.9026V42.3735L125.633 43.6381ZM125.633 47.2248L124.369 48.4893V45.9602L125.633 47.2248ZM127.059 49.6159L125.564 51.1104L124.07 49.6159H127.059ZM127.059 53.2026H124.07L125.564 51.7081L127.059 53.2026ZM127.358 54.3982V57.3871L125.863 55.8926L127.358 54.3982ZM127.059 54.0993L125.564 55.5937L124.07 54.0993H127.059ZM127.059 57.686H124.07L125.564 56.1915L127.059 57.686ZM127.289 59.1344V62.8131L125.449 60.9738L127.289 59.1344ZM126.921 63.1809H123.242L125.081 61.3416L126.921 63.1809ZM127.289 64.5145V68.1931L125.449 66.3538L127.289 64.5145ZM126.921 64.1466L125.081 65.9859L123.242 64.1466H126.921ZM126.921 68.561H123.242L125.081 66.7217L126.921 68.561ZM127.208 70.0899V74.5733L124.966 72.3316L127.208 70.0899ZM126.76 75.0216H122.276L124.518 72.7799L126.76 75.0216ZM127.208 76.6655V81.1489L124.966 78.9072L127.208 76.6655ZM126.76 76.2172L124.518 78.4589L122.276 76.2172H126.76ZM126.76 81.5972H122.276L124.518 79.3555L126.76 81.5972ZM127.128 83.4365V88.7246L124.484 86.0806L127.128 83.4365ZM126.599 89.2534H121.311L123.955 86.6094L126.599 89.2534ZM127.059 92.0584V98.0362L124.07 95.0473L127.059 92.0584ZM126.461 98.634H120.483L123.472 95.6451L126.461 98.634ZM127.013 101.094V107.532L123.794 104.313L127.013 101.094ZM126.369 100.45L123.15 103.669L119.931 100.45H126.369ZM126.369 108.175H119.931L123.15 104.957L126.369 108.175ZM119.138 127.029H113.16L116.747 124.936L119.138 127.029ZM117.345 124.339L121.23 121.947L120.334 127.328L117.345 124.339ZM119.736 128.523L118.839 133.604L116.448 130.914L119.736 128.523ZM118.241 127.925L115.252 130.316L113.16 127.925H118.241ZM117.942 133.903H111.666L114.954 131.512L117.942 133.903ZM119.992 151.837L118.626 154.569L116.235 151.837H119.992ZM121.017 151.837H124.433L119.992 154.228L121.017 151.837ZM143.514 137.403L140.396 140.012L138.858 135.024L143.514 137.403ZM138.14 133.275L136.9 128.267L140.343 130.429L138.14 133.275ZM141.874 130.924L145.317 133.086L139.055 133.512L141.874 130.924ZM141.495 129.751L138.351 127.569L143.42 127.223L141.495 129.751ZM137.395 126.735L139.638 124.485L143.359 126.329L137.395 126.735ZM136.222 127.114L134.962 121.808L139.001 123.929L136.222 127.114ZM128.944 108.175L132.163 104.957L135.382 108.175H128.944ZM128.3 107.532V101.094L131.519 104.313L128.3 107.532ZM128.944 100.45H135.382L132.163 103.669L128.944 100.45ZM128.852 98.634L131.841 95.6451L134.83 98.634L128.852 98.634ZM128.254 98.0362V92.0584L131.243 95.0473L128.254 98.0362ZM128.185 88.7246V83.4365L130.829 86.0806L128.185 88.7246ZM131.358 86.6094L134.002 89.2534H128.714L131.358 86.6094ZM129.174 47.2248L127.909 48.4893V45.9602L129.174 47.2248ZM128.162 45.7073H130.691L129.427 46.9718L128.162 45.7073ZM127.955 54.3981L129.45 55.8926L127.955 57.387V54.3981ZM128.254 54.0992H131.243L129.749 55.5937L128.254 54.0992ZM128.024 64.5144L129.864 66.3538L128.024 68.1931V64.5144ZM128.392 64.1466H132.071L130.231 65.9859L128.392 64.1466ZM128.105 76.6655L130.346 78.9072L128.105 81.1489V76.6655ZM128.553 76.2172H133.036L130.795 78.4589L128.553 76.2172ZM130.795 79.3555L133.036 81.5972H128.553L130.795 79.3555ZM131.243 78.9072L133.485 76.6655V81.1489L131.243 78.9072ZM128.553 75.0216L130.795 72.7799L133.036 75.0216H128.553ZM128.105 74.5733V70.0899L130.346 72.3316L128.105 74.5733ZM130.231 66.7217L132.071 68.561H128.392L130.231 66.7217ZM130.599 66.3538L132.439 64.5145V68.1931L130.599 66.3538ZM128.392 63.1809L130.231 61.3416L132.071 63.1809H128.392ZM128.024 62.8131V59.1344L129.864 60.9737L128.024 62.8131ZM129.749 56.1915L131.243 57.686H128.254L129.749 56.1915ZM130.048 55.8926L131.542 54.3982V57.3871L130.048 55.8926ZM128.254 53.2026L129.749 51.7081L131.243 53.2026H128.254ZM127.955 52.9037V49.9148L129.45 51.4092L127.955 52.9037ZM129.427 47.4777L130.691 48.7422H128.162L129.427 47.4777ZM129.68 47.2248L130.944 45.9602V48.4893L129.68 47.2248ZM128.162 45.1555L129.427 43.891L130.691 45.1555H128.162ZM127.909 44.9026V42.3735L129.174 43.6381L127.909 44.9026ZM129.251 40.3503L130.247 39.354V41.3466L129.251 40.3503ZM130.048 41.5458H128.055L129.051 40.5495L130.048 41.5458ZM129.051 40.151L128.055 39.1547H130.048L129.051 40.151ZM128.852 40.3503L127.856 41.3466V39.354L128.852 40.3503ZM142.067 152.135L139.676 154.868L138.31 152.135H142.067ZM141.331 140.547L144.449 137.938L148.488 140.06L141.331 140.547ZM149.024 139.125L144.964 136.705L147.228 134.753L149.024 139.125ZM144.029 136.169L140.309 134.326L146.273 133.92L144.029 136.169ZM145.853 132.151L142.43 130.287L144.355 127.759L145.853 132.151ZM143.596 125.414L140.174 123.55L142.119 121.32L143.596 125.414ZM141.78 120.744L139.557 123.292L135.518 121.171L141.78 120.744ZM136.025 107.532L132.807 104.313L136.025 101.094V107.532ZM135.428 98.0362L132.439 95.0473L135.428 92.0584V98.0362ZM131.841 94.4495L128.852 91.4606H134.83L131.841 94.4495ZM134.531 88.7246L131.887 86.0806L134.531 83.4365V88.7246ZM131.358 85.5518L128.714 82.9077H134.002L131.358 85.5518ZM133.485 74.5733L131.243 72.3316L133.485 70.0899V74.5733ZM130.795 71.8833L128.553 69.6416H133.036L130.795 71.8833ZM132.439 62.8131L130.599 60.9737L132.439 59.1344V62.8131ZM130.231 60.6059L128.392 58.7665H132.071L130.231 60.6059ZM131.542 52.9037L130.048 51.4092L131.542 49.9148V52.9037ZM129.749 51.1103L128.254 49.6159H131.243L129.749 51.1103ZM130.944 44.9026L129.68 43.6381L130.944 42.3735V44.9026ZM129.427 43.3852L128.162 42.1206H130.691L129.427 43.3852ZM123.771 49.9148L125.265 51.4092L123.771 52.9037V49.9148ZM123.771 54.3981L125.265 55.8926L123.771 57.387V54.3981ZM126.921 58.7665L125.081 60.6059L123.242 58.7665H126.921ZM122.874 59.1344L124.714 60.9737L122.874 62.8131V59.1344ZM122.874 64.5144L124.714 66.3538L122.874 68.1931V64.5144ZM126.76 69.6416L124.518 71.8833L122.276 69.6416H126.76ZM121.828 70.0899L124.07 72.3316L121.828 74.5733V70.0899ZM121.828 76.6655L124.07 78.9072L121.828 81.1489V76.6655ZM126.599 82.9077L123.955 85.5518L121.311 82.9077H126.599ZM120.782 83.4365L123.426 86.0806L120.782 88.7246V83.4365ZM126.461 91.4606L123.472 94.4495L120.483 91.4606H126.461ZM119.885 92.0584L122.874 95.0473L119.885 98.0362V92.0584ZM119.287 101.094L122.506 104.313L119.287 107.532V101.094ZM120.632 121.35L116.747 123.741L114.356 121.35L120.632 121.35ZM114.057 121.947L116.149 124.04L112.861 126.132L114.057 121.947ZM112.264 128.523L114.356 130.914L111.068 133.006L112.264 128.523ZM116.747 134.8L113.16 136.892L110.769 134.8H116.747ZM109.872 135.696L112.264 137.49L108.378 140.18L109.872 135.696ZM111.58 151.837L107.14 154.228L108.164 151.837H111.58ZM107.14 151.837L105.773 154.569L103.382 151.837H107.14ZM102.357 152.178L104.749 154.569L100.65 154.911L102.357 152.178ZM106.2 160.504L101.76 162.896L102.784 160.504H106.2ZM100.308 159.01L104.065 156.619L104.407 158.668L100.308 159.01ZM100.308 155.936L102.699 156.277L99.6247 158.327L100.308 155.936ZM101.76 160.504L100.393 163.237L98.0022 160.504H101.76ZM96.9774 160.846L99.3685 163.237L95.2695 163.579L96.9774 160.846ZM96.6216 178.139L91.4408 180.929L92.6364 178.139H96.6216ZM89.8467 176.047L93.6042 173.656L93.9458 175.705L89.8467 176.047ZM94.629 176.047L95.6538 173.314L98.0449 176.047H94.629ZM101.119 168.873L96.6785 171.264L97.7033 168.873H101.119ZM94.9279 167.678L98.6853 165.287L99.0269 167.336L94.9279 167.678ZM94.9279 164.603L97.319 164.945L94.2447 166.995L94.9279 164.603ZM96.6785 168.873L95.3121 171.606L92.921 168.873H96.6785ZM91.8962 169.215L94.2874 171.606L90.1883 171.948L91.8962 169.215ZM89.8467 172.972L92.2378 173.314L89.1635 175.364L89.8467 172.972ZM91.4408 178.139L89.8467 181.327L87.0571 178.139H91.4408ZM83.4704 182.921L86.26 183.32L82.6733 185.711L83.4704 182.921ZM83.4704 186.508L87.8541 183.718L88.2526 186.109L83.4704 186.508ZM83.8689 181.726L85.8615 178.537L88.6512 181.327L83.8689 181.726ZM89.0497 186.508L90.2452 183.32L93.0349 186.508H89.0497ZM94.629 186.109L91.8393 182.921L96.6216 182.523L94.629 186.109ZM97.0201 181.327H92.6364L98.2157 178.537L97.0201 181.327ZM99.4112 175.705L97.0201 172.972L101.119 172.631L99.4112 175.705ZM101.461 171.606H97.7033L102.486 169.215L101.461 171.606ZM99.7101 167.678L100.735 164.945L103.126 167.678H99.7101ZM104.492 167.336L102.101 164.603L106.2 164.262L104.492 167.336ZM106.542 163.237H102.784L107.567 160.846L106.542 163.237ZM105.09 159.01L106.115 156.277L108.506 159.01H105.09ZM109.872 158.668L107.481 155.936L111.58 155.594L109.872 158.668ZM108.164 154.569L112.947 152.178L111.922 154.569H108.164ZM113.16 155.936L115.551 156.277L112.477 158.327L113.16 155.936ZM113.16 159.01L116.918 156.619L117.259 158.668L113.16 159.01ZM113.502 154.911L115.21 152.178L117.601 154.569L113.502 154.911ZM117.942 159.01L118.967 156.277L121.358 159.01H117.942ZM122.725 158.668L120.334 155.936L124.433 155.594L122.725 158.668ZM121.017 154.569L125.799 152.178L124.774 154.569H121.017ZM125.671 154.1L128.062 155.295H126.183L125.671 154.1ZM126.354 155.808L128.404 155.978L127.208 157.345L126.354 155.808ZM127.891 157.516L129.087 156.149L129.599 157.516H127.891ZM130.966 154.1L131.82 155.466L129.77 155.295L130.966 154.1ZM129.941 157.345L130.112 156.32L131.99 157.516L129.941 157.345ZM130.795 156.149L131.99 155.978L132.332 157.174L130.795 156.149ZM132.503 152.477L137.285 154.868H133.528L132.503 152.477ZM133.869 155.893L137.968 156.235L135.577 158.967L133.869 155.893ZM136.943 159.309L139.335 156.576L140.359 159.309H136.943ZM143.092 152.477L144.8 155.21L140.701 154.868L143.092 152.477ZM141.042 158.967L141.384 156.918L145.142 159.309L141.042 158.967ZM142.75 156.576L145.142 156.235L145.825 158.626L142.75 156.576ZM145.056 152.178L149.838 154.569H146.081L145.056 152.178ZM146.423 155.594L150.522 155.936L148.13 158.668L146.423 155.594ZM151.888 156.277L152.913 159.01H149.497L151.888 156.277ZM152.059 163.237L151.034 160.846L155.816 163.237H152.059ZM152.4 164.262L156.499 164.604L154.108 167.336L152.4 164.262ZM157.866 164.945L158.891 167.678H155.475L157.866 164.945ZM156.115 169.215L160.897 171.606H157.14L156.115 169.215ZM157.481 172.631L161.581 172.972L159.189 175.705L157.481 172.631ZM160.385 178.537L165.964 181.327H161.581L160.385 178.537ZM161.979 182.523L166.761 182.921L163.972 186.109L161.979 182.523Z" fill="#3F3D56"/>
<path opacity="0.1" d="M125.714 24.2101H121.828V26.0035H125.714V24.2101Z" fill="black"/>
<path opacity="0.1" d="M131.99 24.2101H128.105V26.0035H131.99V24.2101Z" fill="black"/>
<path d="M199.218 188.389C195.997 190.289 194.729 194.107 194.729 194.107C194.729 194.107 198.684 194.846 201.906 192.946C205.127 191.047 206.395 187.228 206.395 187.228C206.395 187.228 202.44 186.489 199.218 188.389Z" fill="#3F3D56"/>
<path d="M200.347 189.567C198.543 192.843 194.763 194.223 194.763 194.223C194.763 194.223 193.909 190.291 195.713 187.015C197.517 183.738 201.297 182.359 201.297 182.359C201.297 182.359 202.151 186.291 200.347 189.567Z" fill="#38D39F"/>
</g>
<defs>
<clipPath id="clip0">
<rect width="256" height="212.822" fill="white"/>
</clipPath>
</defs>
</svg>
