<svg width="33" height="33" viewBox="0 0 33 33" fill="none" xmlns="http://www.w3.org/2000/svg">
<path fill-rule="evenodd" clip-rule="evenodd" d="M0.955383 3.82895C0.955383 2.22976 2.24235 0.93335 3.85526 0.93335H12.5577C14.1592 0.93335 15.4575 2.21842 15.4575 3.82895V12.5186C15.4575 14.1178 14.1706 15.4142 12.5577 15.4142H3.85526C2.2537 15.4142 0.955383 14.1291 0.955383 12.5186V3.82895ZM18.3579 3.82895C18.3579 2.22976 19.6449 0.93335 21.2578 0.93335H29.9602C31.5618 0.93335 32.8601 2.21842 32.8601 3.82895V12.5186C32.8601 14.1178 31.5731 15.4142 29.9602 15.4142H21.2578C19.6563 15.4142 18.3579 14.1291 18.3579 12.5186V3.82895ZM18.3579 21.2059C18.3579 19.6067 19.6449 18.3103 21.2578 18.3103H29.9602C31.5618 18.3103 32.8601 19.5954 32.8601 21.2059V29.8955C32.8601 31.4947 31.5731 32.7911 29.9602 32.7911H21.2578C19.6563 32.7911 18.3579 31.506 18.3579 29.8955V21.2059ZM0.955383 21.206C0.955383 19.6068 2.24235 18.3103 3.85526 18.3103H12.5577C14.1592 18.3103 15.4575 19.5954 15.4575 21.206V29.8956C15.4575 31.4947 14.1706 32.7912 12.5577 32.7912H3.85526C2.2537 32.7912 0.955383 31.5061 0.955383 29.8956V21.206Z" fill="#A3A3A3"/>
</svg>
