<svg width="17" height="16" viewBox="0 0 17 16" fill="none" xmlns="http://www.w3.org/2000/svg">
<path fill-rule="evenodd" clip-rule="evenodd" d="M0 1.45427C0 0.651097 0.648287 0 1.46076 0H5.84444C6.65119 0 7.3052 0.645406 7.3052 1.45427V5.81846C7.3052 6.62163 6.65691 7.27273 5.84444 7.27273H1.46076C0.654004 7.27273 0 6.62732 0 5.81846V1.45427ZM8.76622 1.45427C8.76622 0.651097 9.41451 0 10.227 0H14.6107C15.4174 0 16.0714 0.645406 16.0714 1.45427V5.81846C16.0714 6.62163 15.4231 7.27273 14.6107 7.27273H10.227C9.42023 7.27273 8.76622 6.62732 8.76622 5.81846V1.45427ZM8.76622 10.1815C8.76622 9.37836 9.41451 8.72726 10.227 8.72726H14.6107C15.4174 8.72726 16.0714 9.37267 16.0714 10.1815V14.5457C16.0714 15.3489 15.4231 16 14.6107 16H10.227C9.42023 16 8.76622 15.3546 8.76622 14.5457V10.1815ZM0 10.1815C0 9.37836 0.648287 8.72726 1.46076 8.72726H5.84444C6.65119 8.72726 7.3052 9.37267 7.3052 10.1815V14.5457C7.3052 15.3489 6.65691 16 5.84444 16H1.46076C0.654004 16 0 15.3546 0 14.5457V10.1815Z" fill="#1B9A5A"/>
</svg>
