<svg width="17" height="16" viewBox="0 0 17 16" fill="none" xmlns="http://www.w3.org/2000/svg">
<path fill-rule="evenodd" clip-rule="evenodd" d="M15.0747 12.7922C14.1408 12.2588 13.24 11.9964 12.5333 11.8379C12.5347 11.8372 12.5362 11.8372 12.5376 11.8364C12.4669 11.8208 12.4035 11.808 12.3364 11.7945C12.2924 11.7852 12.2484 11.7753 12.2059 11.7675C11.8013 11.685 11.4832 11.6331 11.3094 11.5769C10.8529 11.4268 10.3618 11.2683 10.3618 10.6283C10.3618 9.98899 10.3531 9.90507 10.5089 9.81974C10.8053 9.65476 10.9806 9.40019 11.0195 9.2025C11.0916 8.83343 11.1291 7.79948 11.2229 7.66792C11.3166 7.53352 11.4847 7.64801 11.5424 7.34508C11.5979 7.04214 11.5979 6.77619 11.6534 6.66312C11.7097 6.54935 11.9059 5.81548 11.7847 5.56375C11.6765 5.33904 11.4804 5.45637 11.4667 5.31699C11.4429 5.09015 11.8619 3.18579 11.5784 2.3794C11.4191 1.92215 11.0823 1.49833 11.0794 1.48837C10.8731 0.748109 9.45023 0.351309 9.09396 0.199132C8.7377 0.0476652 7.68982 -0.16069 6.97801 0.199132C6.2662 0.559665 6.07509 1.04464 5.77436 1.2338C5.47506 1.42437 5.15558 1.54029 4.86134 2.3794C4.57791 3.18579 4.99692 5.09015 4.97384 5.31699C4.96014 5.45637 4.76326 5.33904 4.65652 5.56375C4.53392 5.81548 4.7308 6.54935 4.78633 6.66312C4.84259 6.77619 4.84259 7.04214 4.89956 7.34508C4.95509 7.64801 5.12313 7.53352 5.2176 7.66792C5.31136 7.79948 5.34886 8.83343 5.42098 9.2025C5.4592 9.40019 5.63517 9.65476 5.93157 9.81974C6.08663 9.90507 6.07869 9.98899 6.07869 10.6283C6.07869 11.2683 5.58829 11.4268 5.13034 11.5769C4.63993 11.7376 3.03891 11.8293 1.35422 12.7922C-0.0939108 13.6192 0.00128532 16 0.00128532 16H6.3989H7.86651H16.4277C16.4277 16 16.5236 13.6192 15.0747 12.7922" fill="#1B9A5A"/>
</svg>
