<svg width="36" height="36" viewBox="0 0 36 36" fill="none" xmlns="http://www.w3.org/2000/svg">
<path d="M10.4999 9.00012C10.8978 9.00012 11.2793 8.84209 11.5606 8.56078C11.8419 8.27948 11.9999 7.89795 11.9999 7.50012C11.9999 7.1023 11.8419 6.72077 11.5606 6.43946C11.2793 6.15816 10.8978 6.00012 10.4999 6.00012H7.49994C7.10211 6.00012 6.72058 6.15816 6.43928 6.43946C6.15797 6.72077 5.99994 7.1023 5.99994 7.50012V28.5001C5.99994 28.8979 6.15797 29.2795 6.43928 29.5608C6.72058 29.8421 7.10211 30.0001 7.49994 30.0001H10.4999C10.8978 30.0001 11.2793 29.8421 11.5606 29.5608C11.8419 29.2795 11.9999 28.8979 11.9999 28.5001C11.9999 28.1023 11.8419 27.7208 11.5606 27.4395C11.2793 27.1582 10.8978 27.0001 10.4999 27.0001H8.99994V9.00012H10.4999Z" fill="white"/>
<path d="M31.23 17.13L27 11.13C26.7706 10.8067 26.4225 10.5873 26.0318 10.5198C25.6411 10.4523 25.2396 10.5423 24.915 10.77C24.7528 10.8837 24.6147 11.0284 24.5087 11.1958C24.4026 11.3631 24.3308 11.5498 24.2974 11.745C24.2639 11.9403 24.2694 12.1402 24.3136 12.3333C24.3579 12.5264 24.4399 12.7088 24.555 12.87L27.135 16.5H15C14.6022 16.5 14.2206 16.6581 13.9393 16.9394C13.658 17.2207 13.5 17.6022 13.5 18C13.5 18.3979 13.658 18.7794 13.9393 19.0607C14.2206 19.342 14.6022 19.5 15 19.5H27L24.3 23.1C24.1818 23.2576 24.0958 23.437 24.0469 23.6278C23.998 23.8186 23.9872 24.0172 24.0151 24.2122C24.0429 24.4072 24.1089 24.5948 24.2093 24.7643C24.3097 24.9338 24.4424 25.0819 24.6 25.2C24.8596 25.3948 25.1754 25.5 25.5 25.5C25.7329 25.5 25.9625 25.4458 26.1708 25.3417C26.3791 25.2375 26.5603 25.0863 26.7 24.9L31.2 18.9C31.3921 18.6463 31.4986 18.3381 31.5039 18.0199C31.5093 17.7018 31.4134 17.3901 31.23 17.13Z" fill="white"/>
</svg>
