<svg width="20" height="26" viewBox="0 0 20 26" fill="none" xmlns="http://www.w3.org/2000/svg">
<path d="M20 0H-1.52588e-05V2.5L7.26249 7.95C5.05841 8.67679 3.23308 10.249 2.18769 12.321C1.1423 14.393 0.96238 16.7954 1.68748 19C2.04622 20.0921 2.61676 21.1028 3.36646 21.9742C4.11616 22.8456 5.03031 23.5607 6.05662 24.0785C7.08293 24.5963 8.20125 24.9067 9.34762 24.9919C10.494 25.0771 11.6459 24.9354 12.7375 24.575C14.4881 23.9996 16.0123 22.8862 17.0929 21.3936C18.1735 19.9009 18.7553 18.1052 18.7553 16.2625C18.7553 14.4198 18.1735 12.6241 17.0929 11.1314C16.0123 9.63878 14.4881 8.52539 12.7375 7.95L20 2.5V0ZM13.675 21.875L9.99998 19.725L6.32499 21.875L7.29998 17.7125L4.06248 14.9125L8.32498 14.55L9.99998 10.625L11.675 14.55L15.9375 14.9125L12.7 17.7125L13.675 21.875Z" fill="white"/>
</svg>
