<svg width="108" height="108" viewBox="0 0 108 108" fill="none" xmlns="http://www.w3.org/2000/svg">
<path d="M54 0.666672C24.56 0.666672 0.666687 24.56 0.666687 54C0.666687 83.44 24.56 107.333 54 107.333C83.44 107.333 107.333 83.44 107.333 54C107.333 24.56 83.44 0.666672 54 0.666672ZM54 16.6667C62.8534 16.6667 70 23.8133 70 32.6667C70 41.52 62.8534 48.6667 54 48.6667C45.1467 48.6667 38 41.52 38 32.6667C38 23.8133 45.1467 16.6667 54 16.6667ZM54 92.4C47.6633 92.4 41.425 90.8319 35.8415 87.8354C30.258 84.8389 25.5028 80.5073 22 75.2267C22.16 64.6133 43.3334 58.8 54 58.8C64.6133 58.8 85.84 64.6133 86 75.2267C82.4972 80.5073 77.742 84.8389 72.1585 87.8354C66.575 90.8319 60.3368 92.4 54 92.4Z" fill="black"/>
</svg>
