<svg width="37" height="36" viewBox="0 0 37 36" fill="none" xmlns="http://www.w3.org/2000/svg">
<path fill-rule="evenodd" clip-rule="evenodd" d="M0 3.2721C0 1.46497 1.45865 0 3.28671 0H13.15C14.9652 0 16.4367 1.45217 16.4367 3.2721V13.0916C16.4367 14.8987 14.9781 16.3637 13.15 16.3637H3.28671C1.47151 16.3637 0 14.9115 0 13.0916V3.2721ZM19.724 3.2721C19.724 1.46497 21.1827 0 23.0107 0H32.874C34.6892 0 36.1607 1.45217 36.1607 3.2721V13.0916C36.1607 14.8987 34.7021 16.3637 32.874 16.3637H23.0107C21.1955 16.3637 19.724 14.9115 19.724 13.0916V3.2721ZM19.724 22.9084C19.724 21.1013 21.1827 19.6363 23.0107 19.6363H32.874C34.6892 19.6363 36.1607 21.0885 36.1607 22.9084V32.7279C36.1607 34.535 34.7021 36 32.874 36H23.0107C21.1955 36 19.724 34.5478 19.724 32.7279V22.9084ZM0 22.9084C0 21.1013 1.45865 19.6363 3.28671 19.6363H13.15C14.9652 19.6363 16.4367 21.0885 16.4367 22.9084V32.7279C16.4367 34.535 14.9781 36 13.15 36H3.28671C1.47151 36 0 34.5478 0 32.7279V22.9084Z" fill="white"/>
</svg>
